<svg width="151" height="38" viewBox="0 0 151 38" fill="none" xmlns="http://www.w3.org/2000/svg">
<mask id="path-1-outside-1_1_1951" maskUnits="userSpaceOnUse" x="4" y="7" width="143" height="32" fill="black">
<rect fill="white" x="4" y="7" width="143" height="32"/>
<path d="M5.69766 37V8.8H19.3777C22.5243 8.8 24.9377 9.45333 26.6177 10.76C28.3243 12.0667 29.1777 13.84 29.1777 16.08C29.1777 17.7333 28.6843 19.1467 27.6977 20.32C26.7377 21.4933 25.4177 22.2933 23.7377 22.72V22.08C25.7377 22.4267 27.271 23.2 28.3377 24.4C29.431 25.5733 29.9777 27.1067 29.9777 29C29.9777 31.48 29.071 33.44 27.2577 34.88C25.4443 36.2933 22.9643 37 19.8177 37H5.69766ZM12.7777 31.6H18.8577C20.2443 31.6 21.271 31.3467 21.9377 30.84C22.631 30.3333 22.9777 29.5467 22.9777 28.48C22.9777 27.3867 22.631 26.6 21.9377 26.12C21.271 25.64 20.2443 25.4 18.8577 25.4H12.7777V31.6ZM12.7777 20H18.0177C19.431 20 20.4577 19.76 21.0977 19.28C21.7643 18.8 22.0977 18.0667 22.0977 17.08C22.0977 16.0933 21.7643 15.3733 21.0977 14.92C20.4577 14.44 19.431 14.2 18.0177 14.2H12.7777V20ZM33.7445 37V8.8H47.0645C50.3179 8.8 52.8245 9.57333 54.5845 11.12C56.3712 12.6667 57.2645 14.8133 57.2645 17.56C57.2645 19.4 56.8645 20.9733 56.0645 22.28C55.2645 23.56 54.1045 24.56 52.5845 25.28C51.0645 25.9733 49.2512 26.32 47.1445 26.32L47.5045 25.32H49.5045C50.6779 25.32 51.7179 25.64 52.6245 26.28C53.5312 26.92 54.2779 27.8133 54.8645 28.96L59.1445 37H51.0645L46.4645 28C46.1712 27.4133 45.7312 27.0133 45.1445 26.8C44.5845 26.5867 43.9445 26.48 43.2245 26.48H41.1445V37H33.7445ZM41.1445 21.24H45.7845C47.2245 21.24 48.3179 20.96 49.0645 20.4C49.8112 19.8133 50.1845 18.9467 50.1845 17.8C50.1845 16.68 49.8112 15.84 49.0645 15.28C48.3179 14.72 47.2245 14.44 45.7845 14.44H41.1445V21.24ZM74.7802 37.44C70.5668 37.44 67.4068 36.4 65.3002 34.32C63.1935 32.24 62.1402 29.1333 62.1402 25V8.8H69.5002V25.04C69.5002 27.0933 69.9268 28.6533 70.7802 29.72C71.6335 30.76 72.9668 31.28 74.7802 31.28C76.5935 31.28 77.9268 30.76 78.7802 29.72C79.6335 28.6533 80.0602 27.0933 80.0602 25.04V8.8H87.3402V25C87.3402 29.1333 86.3002 32.24 84.2202 34.32C82.1402 36.4 78.9935 37.44 74.7802 37.44ZM102.899 37.44C100.633 37.44 98.4726 37.1733 96.4192 36.64C94.3926 36.08 92.6859 35.3333 91.2992 34.4L93.3792 28.68C94.2592 29.24 95.2192 29.72 96.2592 30.12C97.2992 30.52 98.3792 30.84 99.4992 31.08C100.646 31.2933 101.806 31.4 102.979 31.4C104.739 31.4 105.953 31.1733 106.619 30.72C107.313 30.2667 107.659 29.68 107.659 28.96C107.659 28.32 107.433 27.8267 106.979 27.48C106.526 27.1067 105.673 26.7867 104.419 26.52L99.5392 25.52C96.9526 24.9867 95.0192 24.0667 93.7392 22.76C92.4592 21.4267 91.8192 19.6933 91.8192 17.56C91.8192 15.6933 92.3126 14.08 93.2992 12.72C94.3126 11.3333 95.7259 10.2667 97.5392 9.52C99.3526 8.74667 101.473 8.36 103.899 8.36C105.899 8.36 107.779 8.64 109.539 9.2C111.299 9.73333 112.739 10.48 113.859 11.44L111.779 16.8C110.713 16.0267 109.513 15.44 108.179 15.04C106.846 14.6133 105.366 14.4 103.739 14.4C102.193 14.4 101.019 14.64 100.219 15.12C99.4459 15.5733 99.0592 16.2267 99.0592 17.08C99.0592 17.6667 99.2859 18.1733 99.7392 18.6C100.219 19 101.086 19.3333 102.339 19.6L107.139 20.56C109.726 21.0667 111.659 21.9733 112.939 23.28C114.246 24.5867 114.899 26.2933 114.899 28.4C114.899 30.2133 114.393 31.8 113.379 33.16C112.393 34.52 111.006 35.5733 109.219 36.32C107.433 37.0667 105.326 37.44 102.899 37.44ZM119.135 37V8.8H126.535V19.68H137.895V8.8H145.295V37H137.895V25.72H126.535V37H119.135Z"/>
</mask>
<path d="M5.69766 37V8.8H19.3777C22.5243 8.8 24.9377 9.45333 26.6177 10.76C28.3243 12.0667 29.1777 13.84 29.1777 16.08C29.1777 17.7333 28.6843 19.1467 27.6977 20.32C26.7377 21.4933 25.4177 22.2933 23.7377 22.72V22.08C25.7377 22.4267 27.271 23.2 28.3377 24.4C29.431 25.5733 29.9777 27.1067 29.9777 29C29.9777 31.48 29.071 33.44 27.2577 34.88C25.4443 36.2933 22.9643 37 19.8177 37H5.69766ZM12.7777 31.6H18.8577C20.2443 31.6 21.271 31.3467 21.9377 30.84C22.631 30.3333 22.9777 29.5467 22.9777 28.48C22.9777 27.3867 22.631 26.6 21.9377 26.12C21.271 25.64 20.2443 25.4 18.8577 25.4H12.7777V31.6ZM12.7777 20H18.0177C19.431 20 20.4577 19.76 21.0977 19.28C21.7643 18.8 22.0977 18.0667 22.0977 17.08C22.0977 16.0933 21.7643 15.3733 21.0977 14.92C20.4577 14.44 19.431 14.2 18.0177 14.2H12.7777V20ZM33.7445 37V8.8H47.0645C50.3179 8.8 52.8245 9.57333 54.5845 11.12C56.3712 12.6667 57.2645 14.8133 57.2645 17.56C57.2645 19.4 56.8645 20.9733 56.0645 22.28C55.2645 23.56 54.1045 24.56 52.5845 25.28C51.0645 25.9733 49.2512 26.32 47.1445 26.32L47.5045 25.32H49.5045C50.6779 25.32 51.7179 25.64 52.6245 26.28C53.5312 26.92 54.2779 27.8133 54.8645 28.96L59.1445 37H51.0645L46.4645 28C46.1712 27.4133 45.7312 27.0133 45.1445 26.8C44.5845 26.5867 43.9445 26.48 43.2245 26.48H41.1445V37H33.7445ZM41.1445 21.24H45.7845C47.2245 21.24 48.3179 20.96 49.0645 20.4C49.8112 19.8133 50.1845 18.9467 50.1845 17.8C50.1845 16.68 49.8112 15.84 49.0645 15.28C48.3179 14.72 47.2245 14.44 45.7845 14.44H41.1445V21.24ZM74.7802 37.44C70.5668 37.44 67.4068 36.4 65.3002 34.32C63.1935 32.24 62.1402 29.1333 62.1402 25V8.8H69.5002V25.04C69.5002 27.0933 69.9268 28.6533 70.7802 29.72C71.6335 30.76 72.9668 31.28 74.7802 31.28C76.5935 31.28 77.9268 30.76 78.7802 29.72C79.6335 28.6533 80.0602 27.0933 80.0602 25.04V8.8H87.3402V25C87.3402 29.1333 86.3002 32.24 84.2202 34.32C82.1402 36.4 78.9935 37.44 74.7802 37.44ZM102.899 37.44C100.633 37.44 98.4726 37.1733 96.4192 36.64C94.3926 36.08 92.6859 35.3333 91.2992 34.4L93.3792 28.68C94.2592 29.24 95.2192 29.72 96.2592 30.12C97.2992 30.52 98.3792 30.84 99.4992 31.08C100.646 31.2933 101.806 31.4 102.979 31.4C104.739 31.4 105.953 31.1733 106.619 30.72C107.313 30.2667 107.659 29.68 107.659 28.96C107.659 28.32 107.433 27.8267 106.979 27.48C106.526 27.1067 105.673 26.7867 104.419 26.52L99.5392 25.52C96.9526 24.9867 95.0192 24.0667 93.7392 22.76C92.4592 21.4267 91.8192 19.6933 91.8192 17.56C91.8192 15.6933 92.3126 14.08 93.2992 12.72C94.3126 11.3333 95.7259 10.2667 97.5392 9.52C99.3526 8.74667 101.473 8.36 103.899 8.36C105.899 8.36 107.779 8.64 109.539 9.2C111.299 9.73333 112.739 10.48 113.859 11.44L111.779 16.8C110.713 16.0267 109.513 15.44 108.179 15.04C106.846 14.6133 105.366 14.4 103.739 14.4C102.193 14.4 101.019 14.64 100.219 15.12C99.4459 15.5733 99.0592 16.2267 99.0592 17.08C99.0592 17.6667 99.2859 18.1733 99.7392 18.6C100.219 19 101.086 19.3333 102.339 19.6L107.139 20.56C109.726 21.0667 111.659 21.9733 112.939 23.28C114.246 24.5867 114.899 26.2933 114.899 28.4C114.899 30.2133 114.393 31.8 113.379 33.16C112.393 34.52 111.006 35.5733 109.219 36.32C107.433 37.0667 105.326 37.44 102.899 37.44ZM119.135 37V8.8H126.535V19.68H137.895V8.8H145.295V37H137.895V25.72H126.535V37H119.135Z" fill="url(#paint0_linear_1_1951)"/>
<path d="M5.69766 37V8.8H19.3777C22.5243 8.8 24.9377 9.45333 26.6177 10.76C28.3243 12.0667 29.1777 13.84 29.1777 16.08C29.1777 17.7333 28.6843 19.1467 27.6977 20.32C26.7377 21.4933 25.4177 22.2933 23.7377 22.72V22.08C25.7377 22.4267 27.271 23.2 28.3377 24.4C29.431 25.5733 29.9777 27.1067 29.9777 29C29.9777 31.48 29.071 33.44 27.2577 34.88C25.4443 36.2933 22.9643 37 19.8177 37H5.69766ZM12.7777 31.6H18.8577C20.2443 31.6 21.271 31.3467 21.9377 30.84C22.631 30.3333 22.9777 29.5467 22.9777 28.48C22.9777 27.3867 22.631 26.6 21.9377 26.12C21.271 25.64 20.2443 25.4 18.8577 25.4H12.7777V31.6ZM12.7777 20H18.0177C19.431 20 20.4577 19.76 21.0977 19.28C21.7643 18.8 22.0977 18.0667 22.0977 17.08C22.0977 16.0933 21.7643 15.3733 21.0977 14.92C20.4577 14.44 19.431 14.2 18.0177 14.2H12.7777V20ZM33.7445 37V8.8H47.0645C50.3179 8.8 52.8245 9.57333 54.5845 11.12C56.3712 12.6667 57.2645 14.8133 57.2645 17.56C57.2645 19.4 56.8645 20.9733 56.0645 22.28C55.2645 23.56 54.1045 24.56 52.5845 25.28C51.0645 25.9733 49.2512 26.32 47.1445 26.32L47.5045 25.32H49.5045C50.6779 25.32 51.7179 25.64 52.6245 26.28C53.5312 26.92 54.2779 27.8133 54.8645 28.96L59.1445 37H51.0645L46.4645 28C46.1712 27.4133 45.7312 27.0133 45.1445 26.8C44.5845 26.5867 43.9445 26.48 43.2245 26.48H41.1445V37H33.7445ZM41.1445 21.24H45.7845C47.2245 21.24 48.3179 20.96 49.0645 20.4C49.8112 19.8133 50.1845 18.9467 50.1845 17.8C50.1845 16.68 49.8112 15.84 49.0645 15.28C48.3179 14.72 47.2245 14.44 45.7845 14.44H41.1445V21.24ZM74.7802 37.44C70.5668 37.44 67.4068 36.4 65.3002 34.32C63.1935 32.24 62.1402 29.1333 62.1402 25V8.8H69.5002V25.04C69.5002 27.0933 69.9268 28.6533 70.7802 29.72C71.6335 30.76 72.9668 31.28 74.7802 31.28C76.5935 31.28 77.9268 30.76 78.7802 29.72C79.6335 28.6533 80.0602 27.0933 80.0602 25.04V8.8H87.3402V25C87.3402 29.1333 86.3002 32.24 84.2202 34.32C82.1402 36.4 78.9935 37.44 74.7802 37.44ZM102.899 37.44C100.633 37.44 98.4726 37.1733 96.4192 36.64C94.3926 36.08 92.6859 35.3333 91.2992 34.4L93.3792 28.68C94.2592 29.24 95.2192 29.72 96.2592 30.12C97.2992 30.52 98.3792 30.84 99.4992 31.08C100.646 31.2933 101.806 31.4 102.979 31.4C104.739 31.4 105.953 31.1733 106.619 30.72C107.313 30.2667 107.659 29.68 107.659 28.96C107.659 28.32 107.433 27.8267 106.979 27.48C106.526 27.1067 105.673 26.7867 104.419 26.52L99.5392 25.52C96.9526 24.9867 95.0192 24.0667 93.7392 22.76C92.4592 21.4267 91.8192 19.6933 91.8192 17.56C91.8192 15.6933 92.3126 14.08 93.2992 12.72C94.3126 11.3333 95.7259 10.2667 97.5392 9.52C99.3526 8.74667 101.473 8.36 103.899 8.36C105.899 8.36 107.779 8.64 109.539 9.2C111.299 9.73333 112.739 10.48 113.859 11.44L111.779 16.8C110.713 16.0267 109.513 15.44 108.179 15.04C106.846 14.6133 105.366 14.4 103.739 14.4C102.193 14.4 101.019 14.64 100.219 15.12C99.4459 15.5733 99.0592 16.2267 99.0592 17.08C99.0592 17.6667 99.2859 18.1733 99.7392 18.6C100.219 19 101.086 19.3333 102.339 19.6L107.139 20.56C109.726 21.0667 111.659 21.9733 112.939 23.28C114.246 24.5867 114.899 26.2933 114.899 28.4C114.899 30.2133 114.393 31.8 113.379 33.16C112.393 34.52 111.006 35.5733 109.219 36.32C107.433 37.0667 105.326 37.44 102.899 37.44ZM119.135 37V8.8H126.535V19.68H137.895V8.8H145.295V37H137.895V25.72H126.535V37H119.135Z" fill="url(#paint1_linear_1_1951)"/>
<path d="M5.69766 37H4.69766V38H5.69766V37ZM5.69766 8.8V7.8H4.69766V8.8H5.69766ZM26.6177 10.76L26.0037 11.5494L26.0097 11.554L26.6177 10.76ZM27.6977 20.32L26.9322 19.6763L26.9237 19.6868L27.6977 20.32ZM23.7377 22.72H22.7377V24.0057L23.9838 23.6892L23.7377 22.72ZM23.7377 22.08L23.9084 21.0947L22.7377 20.8918V22.08H23.7377ZM28.3377 24.4L27.5902 25.0644L27.598 25.0731L27.6061 25.0817L28.3377 24.4ZM27.2577 34.88L27.8724 35.6688L27.8795 35.6631L27.2577 34.88ZM12.7777 31.6H11.7777V32.6H12.7777V31.6ZM21.9377 30.84L21.3476 30.0326L21.3401 30.0382L21.3326 30.0438L21.9377 30.84ZM21.9377 26.12L21.3534 26.9315L21.3608 26.9369L21.3684 26.9422L21.9377 26.12ZM12.7777 25.4V24.4H11.7777V25.4H12.7777ZM12.7777 20H11.7777V21H12.7777V20ZM21.0977 19.28L20.5134 18.4685L20.5054 18.4742L20.4977 18.48L21.0977 19.28ZM21.0977 14.92L20.4977 15.72L20.5162 15.7339L20.5353 15.7469L21.0977 14.92ZM12.7777 14.2V13.2H11.7777V14.2H12.7777ZM6.69766 37V8.8H4.69766V37H6.69766ZM5.69766 9.8H19.3777V7.8H5.69766V9.8ZM19.3777 9.8C22.4041 9.8 24.5657 10.4309 26.0037 11.5494L27.2316 9.97065C25.3096 8.47577 22.6446 7.8 19.3777 7.8V9.8ZM26.0097 11.554C27.4574 12.6623 28.1777 14.136 28.1777 16.08H30.1777C30.1777 13.544 29.1913 11.471 27.2256 9.96599L26.0097 11.554ZM28.1777 16.08C28.1777 17.5178 27.7551 18.6979 26.9323 19.6764L28.463 20.9636C29.6136 19.5954 30.1777 17.9489 30.1777 16.08H28.1777ZM26.9237 19.6868C26.1181 20.6714 24.9951 21.3689 23.4915 21.7508L23.9838 23.6892C25.8402 23.2178 27.3572 22.3153 28.4716 20.9532L26.9237 19.6868ZM24.7377 22.72V22.08H22.7377V22.72H24.7377ZM23.5669 23.0653C25.4039 23.3837 26.71 24.074 27.5902 25.0644L29.0851 23.7356C27.832 22.326 26.0714 21.4696 23.9084 21.0947L23.5669 23.0653ZM27.6061 25.0817C28.4964 26.0372 28.9777 27.3111 28.9777 29H30.9777C30.9777 26.9023 30.3656 25.1095 29.0693 23.7183L27.6061 25.0817ZM28.9777 29C28.9777 31.1999 28.1914 32.8616 26.6358 34.0969L27.8795 35.6631C29.9506 34.0184 30.9777 31.7601 30.9777 29H28.9777ZM26.6429 34.0913C25.06 35.325 22.8228 36 19.8177 36V38C23.1059 38 25.8286 37.2617 27.8724 35.6687L26.6429 34.0913ZM19.8177 36H5.69766V38H19.8177V36ZM12.7777 32.6H18.8577V30.6H12.7777V32.6ZM18.8577 32.6C20.3318 32.6 21.6206 32.337 22.5427 31.6362L21.3326 30.0438C20.9213 30.3564 20.1568 30.6 18.8577 30.6V32.6ZM22.5277 31.6474C23.5412 30.9067 23.9777 29.7795 23.9777 28.48H21.9777C21.9777 29.3138 21.7208 29.7599 21.3476 30.0326L22.5277 31.6474ZM23.9777 28.48C23.9777 27.1667 23.5481 26.0187 22.5069 25.2978L21.3684 26.9422C21.7138 27.1813 21.9777 27.6067 21.9777 28.48H23.9777ZM22.522 25.3085C21.6035 24.6472 20.324 24.4 18.8577 24.4V26.4C20.1646 26.4 20.9385 26.6328 21.3534 26.9315L22.522 25.3085ZM18.8577 24.4H12.7777V26.4H18.8577V24.4ZM11.7777 25.4V31.6H13.7777V25.4H11.7777ZM12.7777 21H18.0177V19H12.7777V21ZM18.0177 21C19.5002 21 20.7954 20.7567 21.6977 20.08L20.4977 18.48C20.1199 18.7633 19.3618 19 18.0177 19V21ZM21.682 20.0915C22.6639 19.3846 23.0977 18.3151 23.0977 17.08H21.0977C21.0977 17.8183 20.8648 18.2154 20.5134 18.4685L21.682 20.0915ZM23.0977 17.08C23.0977 15.8465 22.6635 14.7755 21.66 14.0931L20.5353 15.7469C20.8652 15.9712 21.0977 16.3401 21.0977 17.08H23.0977ZM21.6977 14.12C20.7954 13.4433 19.5002 13.2 18.0177 13.2V15.2C19.3618 15.2 20.1199 15.4367 20.4977 15.72L21.6977 14.12ZM18.0177 13.2H12.7777V15.2H18.0177V13.2ZM11.7777 14.2V20H13.7777V14.2H11.7777ZM33.7445 37H32.7445V38H33.7445V37ZM33.7445 8.8V7.8H32.7445V8.8H33.7445ZM54.5845 11.12L53.9244 11.8712L53.93 11.8761L54.5845 11.12ZM56.0645 22.28L56.9126 22.81L56.9174 22.8022L56.0645 22.28ZM52.5845 25.28L52.9995 26.1898L53.0061 26.1868L53.0126 26.1837L52.5845 25.28ZM47.1445 26.32L46.2036 25.9813L45.7217 27.32H47.1445V26.32ZM47.5045 25.32V24.32H46.8017L46.5636 24.9813L47.5045 25.32ZM52.6245 26.28L52.0478 27.097L52.6245 26.28ZM54.8645 28.96L53.9743 29.4155L53.978 29.4227L53.9818 29.4299L54.8645 28.96ZM59.1445 37V38H60.8097L60.0273 36.5301L59.1445 37ZM51.0645 37L50.1741 37.4551L50.4526 38H51.0645V37ZM46.4645 28L45.5701 28.4472L45.5741 28.4551L46.4645 28ZM45.1445 26.8L44.7885 27.7345L44.7956 27.7372L44.8028 27.7398L45.1445 26.8ZM41.1445 26.48V25.48H40.1445V26.48H41.1445ZM41.1445 37V38H42.1445V37H41.1445ZM41.1445 21.24H40.1445V22.24H41.1445V21.24ZM49.0645 20.4L49.6645 21.2L49.6735 21.1933L49.6824 21.1863L49.0645 20.4ZM49.0645 15.28L49.6645 14.48V14.48L49.0645 15.28ZM41.1445 14.44V13.44H40.1445V14.44H41.1445ZM34.7445 37V8.8H32.7445V37H34.7445ZM33.7445 9.8H47.0645V7.8H33.7445V9.8ZM47.0645 9.8C50.1692 9.8 52.4071 10.5378 53.9244 11.8712L55.2446 10.3688C53.242 8.6089 50.4665 7.8 47.0645 7.8V9.8ZM53.93 11.8761C55.4607 13.2011 56.2645 15.0514 56.2645 17.56H58.2645C58.2645 14.5753 57.2817 12.1322 55.239 10.3639L53.93 11.8761ZM56.2645 17.56C56.2645 19.253 55.8977 20.6373 55.2117 21.7578L56.9174 22.8022C57.8314 21.3093 58.2645 19.547 58.2645 17.56H56.2645ZM55.2165 21.75C54.5292 22.8497 53.524 23.7285 52.1564 24.3763L53.0126 26.1837C54.685 25.3915 55.9998 24.2703 56.9125 22.81L55.2165 21.75ZM52.1695 24.3702C50.8091 24.9907 49.1442 25.32 47.1445 25.32V27.32C49.3582 27.32 51.3199 26.956 52.9995 26.1898L52.1695 24.3702ZM48.0854 26.6587L48.4454 25.6587L46.5636 24.9813L46.2036 25.9813L48.0854 26.6587ZM47.5045 26.32H49.5045V24.32H47.5045V26.32ZM49.5045 26.32C50.4839 26.32 51.3199 26.5831 52.0478 27.097L53.2012 25.463C52.1159 24.6969 50.8719 24.32 49.5045 24.32V26.32ZM52.0478 27.097C52.8025 27.6297 53.4495 28.3897 53.9743 29.4155L55.7548 28.5045C55.1063 27.237 54.2599 26.2103 53.2012 25.463L52.0478 27.097ZM53.9818 29.4299L58.2618 37.4699L60.0273 36.5301L55.7472 28.4901L53.9818 29.4299ZM59.1445 36H51.0645V38H59.1445V36ZM51.955 36.5449L47.355 27.5449L45.5741 28.4551L50.1741 37.4551L51.955 36.5449ZM47.359 27.5528C46.9576 26.7501 46.3265 26.1658 45.4863 25.8602L44.8028 27.7398C45.1359 27.8609 45.3848 28.0766 45.5701 28.4472L47.359 27.5528ZM45.5005 25.8655C44.8065 25.6011 44.0423 25.48 43.2245 25.48V27.48C43.8467 27.48 44.3626 27.5722 44.7885 27.7345L45.5005 25.8655ZM43.2245 25.48H41.1445V27.48H43.2245V25.48ZM40.1445 26.48V37H42.1445V26.48H40.1445ZM41.1445 36H33.7445V38H41.1445V36ZM41.1445 22.24H45.7845V20.24H41.1445V22.24ZM45.7845 22.24C47.3305 22.24 48.6735 21.9433 49.6645 21.2L48.4645 19.6C47.9623 19.9767 47.1186 20.24 45.7845 20.24V22.24ZM49.6824 21.1863C50.721 20.3702 51.1845 19.1827 51.1845 17.8H49.1845C49.1845 18.7107 48.9014 19.2564 48.4467 19.6137L49.6824 21.1863ZM51.1845 17.8C51.1845 16.436 50.7147 15.2676 49.6645 14.48L48.4645 16.08C48.9077 16.4124 49.1845 16.924 49.1845 17.8H51.1845ZM49.6645 14.48C48.6735 13.7367 47.3305 13.44 45.7845 13.44V15.44C47.1186 15.44 47.9623 15.7033 48.4645 16.08L49.6645 14.48ZM45.7845 13.44H41.1445V15.44H45.7845V13.44ZM40.1445 14.44V21.24H42.1445V14.44H40.1445ZM65.3002 34.32L64.5976 35.0316L65.3002 34.32ZM62.1402 8.8V7.8H61.1402V8.8H62.1402ZM69.5002 8.8H70.5002V7.8H69.5002V8.8ZM70.7802 29.72L69.9992 30.3447L70.0071 30.3543L70.7802 29.72ZM78.7802 29.72L79.5533 30.3544L79.561 30.3447L78.7802 29.72ZM80.0602 8.8V7.8H79.0602V8.8H80.0602ZM87.3402 8.8H88.3402V7.8H87.3402V8.8ZM84.2202 34.32L84.9273 35.0271L84.2202 34.32ZM74.7802 36.44C70.7178 36.44 67.8553 35.4375 66.0027 33.6084L64.5976 35.0316C66.9583 37.3625 70.4159 38.44 74.7802 38.44V36.44ZM66.0027 33.6084C64.1514 31.7805 63.1402 28.9738 63.1402 25H61.1402C61.1402 29.2929 62.2356 32.6995 64.5976 35.0316L66.0027 33.6084ZM63.1402 25V8.8H61.1402V25H63.1402ZM62.1402 9.8H69.5002V7.8H62.1402V9.8ZM68.5002 8.8V25.04H70.5002V8.8H68.5002ZM68.5002 25.04C68.5002 27.211 68.9482 29.0309 69.9993 30.3447L71.561 29.0953C70.9054 28.2758 70.5002 26.9756 70.5002 25.04H68.5002ZM70.0071 30.3543C71.1109 31.6996 72.7781 32.28 74.7802 32.28V30.28C73.1555 30.28 72.156 29.8204 71.5532 29.0857L70.0071 30.3543ZM74.7802 32.28C76.7822 32.28 78.4494 31.6996 79.5532 30.3543L78.0071 29.0857C77.4043 29.8204 76.4048 30.28 74.7802 30.28V32.28ZM79.561 30.3447C80.6121 29.0309 81.0602 27.211 81.0602 25.04H79.0602C79.0602 26.9756 78.6549 28.2758 77.9993 29.0953L79.561 30.3447ZM81.0602 25.04V8.8H79.0602V25.04H81.0602ZM80.0602 9.8H87.3402V7.8H80.0602V9.8ZM86.3402 8.8V25H88.3402V8.8H86.3402ZM86.3402 25C86.3402 28.977 85.3405 31.7855 83.5131 33.6129L84.9273 35.0271C87.2599 32.6945 88.3402 29.2896 88.3402 25H86.3402ZM83.5131 33.6129C81.6889 35.4371 78.8437 36.44 74.7802 36.44V38.44C79.1433 38.44 82.5914 37.3629 84.9273 35.0271L83.5131 33.6129ZM96.4192 36.64L96.1529 37.6039L96.1603 37.6059L96.1678 37.6079L96.4192 36.64ZM91.2992 34.4L90.3594 34.0583L90.0922 34.793L90.7408 35.2296L91.2992 34.4ZM93.3792 28.68L93.9161 27.8363L92.8651 27.1675L92.4394 28.3383L93.3792 28.68ZM99.4992 31.08L99.2897 32.0578L99.303 32.0606L99.3163 32.0631L99.4992 31.08ZM106.619 30.72L106.072 29.883L106.064 29.888L106.057 29.8931L106.619 30.72ZM106.979 27.48L106.344 28.2519L106.357 28.2634L106.372 28.2744L106.979 27.48ZM104.419 26.52L104.627 25.5419L104.62 25.5404L104.419 26.52ZM99.5392 25.52L99.3373 26.4994L99.3385 26.4996L99.5392 25.52ZM93.7392 22.76L93.0178 23.4526L93.0249 23.4598L93.7392 22.76ZM93.2992 12.72L92.4918 12.13L92.4898 12.1328L93.2992 12.72ZM97.5392 9.52L97.92 10.4447L97.9315 10.4398L97.5392 9.52ZM109.539 9.2L109.236 10.153L109.249 10.157L109.539 9.2ZM113.859 11.44L114.791 11.8018L115.048 11.1416L114.51 10.6807L113.859 11.44ZM111.779 16.8L111.192 17.6096L112.242 18.3709L112.711 17.1618L111.779 16.8ZM108.179 15.04L107.874 15.9924L107.883 15.9952L107.892 15.9978L108.179 15.04ZM100.219 15.12L100.725 15.9827L100.734 15.9775L100.219 15.12ZM99.7392 18.6L99.0539 19.3282L99.0758 19.3489L99.099 19.3682L99.7392 18.6ZM102.339 19.6L102.131 20.5782L102.143 20.5806L102.339 19.6ZM107.139 20.56L106.943 21.5406L106.947 21.5414L107.139 20.56ZM112.939 23.28L112.225 23.9798L112.232 23.9871L112.939 23.28ZM113.379 33.16L112.577 32.5625L112.57 32.5728L113.379 33.16ZM109.219 36.32L109.605 37.2427L109.219 36.32ZM102.899 36.44C100.712 36.44 98.6364 36.1827 96.6706 35.6721L96.1678 37.6079C98.3087 38.1639 100.554 38.44 102.899 38.44V36.44ZM96.6856 35.6761C94.7372 35.1378 93.1351 34.4303 91.8576 33.5704L90.7408 35.2296C92.2366 36.2364 94.0479 37.0222 96.1529 37.6039L96.6856 35.6761ZM92.239 34.7417L94.319 29.0217L92.4394 28.3383L90.3594 34.0583L92.239 34.7417ZM92.8423 29.5237C93.7822 30.1217 94.8023 30.6311 95.9002 31.0533L96.6182 29.1867C95.6361 28.8089 94.7363 28.3583 93.9161 27.8363L92.8423 29.5237ZM95.9002 31.0533C96.9902 31.4725 98.1202 31.8072 99.2897 32.0578L99.7087 30.1022C98.6382 29.8728 97.6083 29.5675 96.6182 29.1867L95.9002 31.0533ZM99.3163 32.0631C100.524 32.2878 101.745 32.4 102.979 32.4V30.4C101.867 30.4 100.768 30.2989 99.6821 30.0969L99.3163 32.0631ZM102.979 32.4C104.752 32.4 106.242 32.1857 107.182 31.5469L106.057 29.8931C105.663 30.161 104.727 30.4 102.979 30.4V32.4ZM107.166 31.557C108.093 30.9514 108.659 30.0729 108.659 28.96H106.659C106.659 29.2871 106.533 29.5819 106.072 29.883L107.166 31.557ZM108.659 28.96C108.659 28.0518 108.32 27.2463 107.587 26.6856L106.372 28.2744C106.545 28.407 106.659 28.5882 106.659 28.96H108.659ZM107.615 26.7081C106.96 26.1684 105.894 25.8114 104.627 25.5419L104.211 27.4981C105.451 27.762 106.092 28.0449 106.344 28.2519L107.615 26.7081ZM104.62 25.5404L99.74 24.5404L99.3385 26.4996L104.218 27.4996L104.62 25.5404ZM99.7412 24.5406C97.2669 24.0304 95.5453 23.1747 94.4536 22.0602L93.0249 23.4598C94.4931 24.9587 96.6382 25.9429 99.3373 26.4994L99.7412 24.5406ZM94.4606 22.0675C93.387 20.9491 92.8192 19.478 92.8192 17.56H90.8192C90.8192 19.9086 91.5314 21.9042 93.0178 23.4525L94.4606 22.0675ZM92.8192 17.56C92.8192 15.8797 93.2595 14.4776 94.1086 13.3072L92.4898 12.1328C91.3656 13.6824 90.8192 15.5069 90.8192 17.56H92.8192ZM94.1066 13.31C94.9965 12.0922 96.2523 11.1314 97.92 10.4447L97.1585 8.59532C95.1995 9.40196 93.6286 10.5744 92.4918 12.13L94.1066 13.31ZM97.9315 10.4398C99.5957 9.73011 101.577 9.36 103.899 9.36V7.36C101.368 7.36 99.1094 7.76322 97.1469 8.60015L97.9315 10.4398ZM103.899 9.36C105.805 9.36 107.582 9.6266 109.236 10.1529L109.842 8.24707C107.977 7.6534 105.994 7.36 103.899 7.36V9.36ZM109.249 10.157C110.908 10.6598 112.216 11.3488 113.208 12.1993L114.51 10.6807C113.262 9.61119 111.69 8.80689 109.829 8.24297L109.249 10.157ZM112.927 11.0782L110.847 16.4382L112.711 17.1618L114.791 11.8018L112.927 11.0782ZM112.366 15.9904C111.204 15.1475 109.901 14.5126 108.467 14.0822L107.892 15.9978C109.124 16.3674 110.221 16.9058 111.192 17.6096L112.366 15.9904ZM108.484 14.0876C107.038 13.6248 105.453 13.4 103.739 13.4V15.4C105.279 15.4 106.654 15.6019 107.874 15.9924L108.484 14.0876ZM103.739 13.4C102.118 13.4 100.731 13.6466 99.7047 14.2625L100.734 15.9775C101.307 15.6334 102.267 15.4 103.739 15.4V13.4ZM99.7135 14.2573C98.6529 14.879 98.0592 15.8504 98.0592 17.08H100.059C100.059 16.603 100.239 16.2676 100.725 15.9827L99.7135 14.2573ZM98.0592 17.08C98.0592 17.9607 98.4135 18.7255 99.0539 19.3282L100.425 17.8718C100.158 17.6212 100.059 17.3726 100.059 17.08H98.0592ZM99.099 19.3682C99.7781 19.9341 100.853 20.3061 102.131 20.5781L102.547 18.6219C101.319 18.3606 100.66 18.0659 100.379 17.8318L99.099 19.3682ZM102.143 20.5806L106.943 21.5406L107.335 19.5794L102.535 18.6194L102.143 20.5806ZM106.947 21.5414C109.419 22.0255 111.136 22.8685 112.225 23.9798L113.654 22.5802C112.182 21.0782 110.033 20.1078 107.331 19.5786L106.947 21.5414ZM112.232 23.9871C113.325 25.0795 113.899 26.5182 113.899 28.4H115.899C115.899 26.0685 115.167 24.0938 113.646 22.5729L112.232 23.9871ZM113.899 28.4C113.899 30.0139 113.453 31.3874 112.577 32.5625L114.181 33.7575C115.332 32.2126 115.899 30.4128 115.899 28.4H113.899ZM112.57 32.5728C111.707 33.7627 110.477 34.7105 108.834 35.3973L109.605 37.2427C111.535 36.4362 113.079 35.2773 114.189 33.7472L112.57 32.5728ZM108.834 35.3973C107.196 36.0818 105.226 36.44 102.899 36.44V38.44C105.426 38.44 107.669 38.0515 109.605 37.2427L108.834 35.3973ZM119.135 37H118.135V38H119.135V37ZM119.135 8.8V7.8H118.135V8.8H119.135ZM126.535 8.8H127.535V7.8H126.535V8.8ZM126.535 19.68H125.535V20.68H126.535V19.68ZM137.895 19.68V20.68H138.895V19.68H137.895ZM137.895 8.8V7.8H136.895V8.8H137.895ZM145.295 8.8H146.295V7.8H145.295V8.8ZM145.295 37V38H146.295V37H145.295ZM137.895 37H136.895V38H137.895V37ZM137.895 25.72H138.895V24.72H137.895V25.72ZM126.535 25.72V24.72H125.535V25.72H126.535ZM126.535 37V38H127.535V37H126.535ZM120.135 37V8.8H118.135V37H120.135ZM119.135 9.8H126.535V7.8H119.135V9.8ZM125.535 8.8V19.68H127.535V8.8H125.535ZM126.535 20.68H137.895V18.68H126.535V20.68ZM138.895 19.68V8.8H136.895V19.68H138.895ZM137.895 9.8H145.295V7.8H137.895V9.8ZM144.295 8.8V37H146.295V8.8H144.295ZM145.295 36H137.895V38H145.295V36ZM138.895 37V25.72H136.895V37H138.895ZM137.895 24.72H126.535V26.72H137.895V24.72ZM125.535 25.72V37H127.535V25.72H125.535ZM126.535 36H119.135V38H126.535V36Z" fill="#A2A2A2" mask="url(#path-1-outside-1_1_1951)"/>
<defs>
<linearGradient id="paint0_linear_1_1951" x1="25.7138" y1="-13.0769" x2="91.5918" y2="42.9737" gradientUnits="userSpaceOnUse">
<stop offset="0.48" stop-color="#ECD3A1"/>
<stop offset="0.88" stop-color="#FF774C"/>
</linearGradient>
<linearGradient id="paint1_linear_1_1951" x1="25.7138" y1="-13.0769" x2="91.5918" y2="42.9737" gradientUnits="userSpaceOnUse">
<stop offset="0.48" stop-color="#FFB524"/>
<stop offset="0.88" stop-color="#FF774C"/>
</linearGradient>
</defs>
</svg>
